<svg xmlns="http://www.w3.org/2000/svg" xmlns:xlink="http://www.w3.org/1999/xlink" viewBox="0 0 60 60"><defs><style>.cls-1{fill:#fff;}.cls-2{fill:url(#linear-gradient);}.cls-3{fill:url(#linear-gradient-2);}</style><linearGradient id="linear-gradient" x1="11.94" y1="30" x2="48.06" y2="30" gradientUnits="userSpaceOnUse"><stop offset="0" stop-color="#7c2927"/><stop offset="0.79" stop-color="#8e1e21"/><stop offset="1" stop-color="#941b1f"/></linearGradient><linearGradient id="linear-gradient-2" x1="23.98" x2="36.02" xlink:href="#linear-gradient"/></defs><title>Ресурс 10</title><g id="Слой_2" data-name="Слой 2"><g id="back_0" data-name="back 0"><path class="cls-1" d="M30,0A30,30,0,1,0,60,30,30,30,0,0,0,30,0Z"/><path class="cls-2" d="M38,11.94H22a10,10,0,0,0-10,10V38a10,10,0,0,0,10,10H38a10,10,0,0,0,10-10V22A10,10,0,0,0,38,11.94ZM30,40A10,10,0,1,1,40,30,10,10,0,0,1,30,40ZM41.27,21.51a2.78,2.78,0,1,1,2.78-2.78A2.79,2.79,0,0,1,41.27,21.51Z"/><path class="cls-3" d="M30,24a6,6,0,1,0,6,6A6,6,0,0,0,30,24Z"/></g></g></svg>