<svg xmlns="http://www.w3.org/2000/svg" viewBox="0 0 60 60"><defs><style>.cls-1{fill:#fff;}</style></defs><title>Ресурс 12</title><g id="Слой_2" data-name="Слой 2"><g id="back_0" data-name="back 0"><g id="Layer_9" data-name="Layer 9"><path class="cls-1" d="M30,0A30,30,0,1,0,60,30,30,30,0,0,0,30,0ZM46.88,13.94,40.16,45.49a.91.91,0,0,1-1.37.59L28.46,39.22,23,44.28a.91.91,0,0,1-1.45-.39L18.05,32.73l-9.5-3.89a1,1,0,0,1,0-1.78L45.66,12.92A.91.91,0,0,1,46.88,13.94Z"/><polygon class="cls-1" points="22.73 40.58 23.33 34.85 40.08 18.47 19.86 31.75 22.73 40.58"/></g></g></g></svg>