<svg xmlns="http://www.w3.org/2000/svg" viewBox="0 0 60 60"><defs><style>.cls-1{fill:#fff;}</style></defs><title>Ресурс 13</title><g id="Слой_2" data-name="Слой 2"><g id="back_0" data-name="back 0"><path class="cls-1" d="M30,0A30,30,0,1,0,60,30,30,30,0,0,0,30,0ZM46.65,22.84v1c0,10.42-7.81,22.22-22.21,22.22a21.51,21.51,0,0,1-12-3.47,7.23,7.23,0,0,0,1.91.17,15.66,15.66,0,0,0,9.72-3.29,7.66,7.66,0,0,1-7.29-5.39,3.29,3.29,0,0,0,1.39.18A8.88,8.88,0,0,0,20.27,34,7.67,7.67,0,0,1,14,26.31v-.17a6.3,6.3,0,0,0,3.47,1,7.84,7.84,0,0,1-2.43-10.41,22.88,22.88,0,0,0,16.15,8.15A5.14,5.14,0,0,1,31,23.19a7.78,7.78,0,0,1,7.81-7.81,7.6,7.6,0,0,1,5.73,2.43,16.07,16.07,0,0,0,5-1.91,8.66,8.66,0,0,1-3.48,4.34A13.41,13.41,0,0,0,50.65,19,10.49,10.49,0,0,1,46.65,22.84Z"/></g></g></svg>