<svg xmlns="http://www.w3.org/2000/svg" viewBox="0 0 60 60"><defs><style>.cls-1{fill:#fff;}</style></defs><title>Ресурс 11</title><g id="Слой_2" data-name="Слой 2"><g id="back_0" data-name="back 0"><path class="cls-1" d="M30,0A30,30,0,1,0,60,30,30,30,0,0,0,30,0ZM43,34c.24.29.8.86,1.69,1.7h0l0,0,0,0,0,0a20.29,20.29,0,0,1,4,4.6,1.52,1.52,0,0,1,.14.26,2.32,2.32,0,0,1,.15.55,1.87,1.87,0,0,1,0,.71,1.06,1.06,0,0,1-.52.57,2.5,2.5,0,0,1-1.23.26L42,42.79a2.33,2.33,0,0,1-1.17-.1,5.07,5.07,0,0,1-1.08-.46L39.3,42a10.09,10.09,0,0,1-1.45-1.33c-.56-.6-1-1.14-1.43-1.62a6.8,6.8,0,0,0-1.27-1.2A1.32,1.32,0,0,0,34,37.5l-.16.08a1.57,1.57,0,0,0-.36.3,2.9,2.9,0,0,0-.44.61,4.3,4.3,0,0,0-.36,1.09,6.69,6.69,0,0,0-.13,1.61,2,2,0,0,1-.08.57,1.51,1.51,0,0,1-.15.39l-.09.1a1.65,1.65,0,0,1-1.1.46H28.71a9.73,9.73,0,0,1-3-.34,11.87,11.87,0,0,1-2.74-1.11c-.78-.45-1.5-.91-2.14-1.37a12.57,12.57,0,0,1-1.47-1.2l-.52-.5c-.14-.14-.33-.35-.57-.62s-.74-.91-1.49-1.9-1.49-2-2.21-3.14S13,30,12,28.14s-1.88-3.71-2.71-5.66a1.57,1.57,0,0,1-.13-.57.69.69,0,0,1,.06-.33l.09-.12a1.41,1.41,0,0,1,1.18-.4l5.71,0a2.85,2.85,0,0,1,.48.13,2.22,2.22,0,0,1,.33.18l.1.06a1.43,1.43,0,0,1,.5.67c.28.69.6,1.41,1,2.15s.65,1.31.85,1.7l.34.6a24.53,24.53,0,0,0,1.16,2.17,11.17,11.17,0,0,0,1,1.43,5.19,5.19,0,0,0,.87.8,1.32,1.32,0,0,0,.7.29,1.56,1.56,0,0,0,.57-.11.3.3,0,0,0,.1-.1,5,5,0,0,0,.25-.46,3.39,3.39,0,0,0,.28-1c.06-.4.13-1,.2-1.68a16,16,0,0,0,0-2.6,9.4,9.4,0,0,0-.19-1.52,4,4,0,0,0-.29-1l-.13-.25a2.55,2.55,0,0,0-1.76-.9c-.19,0-.15-.19.1-.49a2.74,2.74,0,0,1,.79-.63c.74-.36,2.39-.53,5-.5a13.42,13.42,0,0,1,2.81.27,2.31,2.31,0,0,1,.69.28,1.17,1.17,0,0,1,.43.5,3.28,3.28,0,0,1,.22.67,4.67,4.67,0,0,1,.07.94c0,.41,0,.79,0,1.15s0,.85,0,1.47,0,1.19,0,1.71c0,.16,0,.45,0,.88s0,.76,0,1a7.27,7.27,0,0,0,.07.84,2.15,2.15,0,0,0,.24.81,1.29,1.29,0,0,0,.47.51l.35.09a.79.79,0,0,0,.54-.23,6.89,6.89,0,0,0,.79-.72A10.54,10.54,0,0,0,36,28.79c.43-.63.91-1.37,1.42-2.23a34.44,34.44,0,0,0,2.23-4.69,1.07,1.07,0,0,1,.21-.36.75.75,0,0,1,.22-.22l.09-.06.1-.05a.71.71,0,0,1,.27-.07,2,2,0,0,1,.42,0l6,0a3.39,3.39,0,0,1,1.34.05,1.21,1.21,0,0,1,.64.35l.13.2c.32.89-.73,2.93-3.13,6.12q-.49.67-1.35,1.77a15.42,15.42,0,0,0-1.87,2.73A1.6,1.6,0,0,0,43,34Z"/></g></g></svg>