<svg xmlns="http://www.w3.org/2000/svg" viewBox="0 0 60 60"><defs><style>.cls-1{fill:#fff;}</style></defs><title>Ресурс 9</title><g id="Слой_2" data-name="Слой 2"><g id="back_0" data-name="back 0"><path class="cls-1" d="M30,0A30,30,0,1,0,60,30,30,30,0,0,0,30,0Zm8.81,17.2H34.53a2,2,0,0,0-2,1.53c0,1.56,0,3.12,0,4.68h6.29c-.16,2.26-.44,4.51-.77,6.74-1.85,0-3.71,0-5.56,0,0,6.67,0,13.32,0,20-2.75,0-5.5,0-8.25,0,0-6.66,0-13.32,0-20-1.34,0-2.69,0-4,0,0-2.24,0-4.48,0-6.71,1.34,0,2.69,0,4,0,0-2.17,0-4.35,0-6.53a7.07,7.07,0,0,1,2.08-4.66,8.81,8.81,0,0,1,5.87-2.05c2.21,0,4.42,0,6.63,0C38.82,12.53,38.82,14.86,38.81,17.2Z"/></g></g></svg>