<svg xmlns="http://www.w3.org/2000/svg" viewBox="0 0 60 60"><defs><linearGradient id="linear-gradient" x1="9.74" y1="30" x2="50.26" y2="30" gradientUnits="userSpaceOnUse"><stop offset="0" stop-color="#7c2927"/><stop offset=".79" stop-color="#8e1e21"/><stop offset="1" stop-color="#941b1f"/></linearGradient><style>.cls-1{fill:#fff}</style></defs><g id="Слой_2" data-name="Слой 2"><g id="back_0" data-name="back 0"><path class="cls-1" d="M30 0a30 30 0 1 0 30 30A30 30 0 0 0 30 0Z"/><path d="M49.84 36.31a6.52 6.52 0 0 1-5.92 5.91 95.46 95.46 0 0 1-13.9.64 95.39 95.39 0 0 1-13.94-.64 6.35 6.35 0 0 1-5.92-5.91 51.82 51.82 0 0 1-.42-6.61 56.2 56.2 0 0 1 .42-5.9c.29-3.3 2.63-5.41 5.92-5.91 3.45-.54 6-.75 13.94-.75a88.38 88.38 0 0 1 13.9.75c3.37.43 5.65 2.48 5.92 5.91a50.28 50.28 0 0 1 .42 6.2 46.36 46.36 0 0 1-.42 6.31Z" style="fill:url(#linear-gradient)"/><path class="cls-1" d="m27.24 34.97 8.91-5.14-8.91-5.14v10.28z"/></g></g></svg>